<svg xmlns="http://www.w3.org/2000/svg" width="100" height="100" viewBox="0 0 100 100">
  <path d="M50 0C22.386 0 0 22.386 0 50c0 27.614 22.386 50 50 50s50-22.386 50-50c0-27.614-22.386-50-50-50zm-8.418 75H31.124v-50h10.458v50zm12.838 0h-10.458v-50h10.458v50zm26.818 0h-10.458v-20.248c0-8.95-3.046-15.084-10.701-15.084-5.821 0-9.292 4.218-10.473 8.45-1.165 2.967-1.082 7.228-1.082 10.882v16.9h-10.458v-50h10.458v6.674c1.418-2.191 4.044-5.293 9.817-5.293 7.087 0 12.711 4.411 12.711 15.1v20.518z" fill="#61DAFB"/>
</svg>

